<svg width="70" height="50" viewBox="0 0 70 50" fill="none" xmlns="http://www.w3.org/2000/svg">
<path d="M68.8752 18.8723C68.6827 18.7138 66.9393 17.3893 63.1976 17.3893C62.2296 17.3893 61.2277 17.4855 60.2598 17.6497C59.5522 12.7136 55.4539 10.3249 55.2898 10.2003L54.2879 9.61731L53.6425 10.5513C52.8387 11.8079 52.2217 13.2288 51.8708 14.6779C51.1915 17.4855 51.6104 20.129 53.0312 22.3876C51.3217 23.3555 48.548 23.5819 47.965 23.6159H2.15393C0.959552 23.6159 -0.00840638 24.5839 -0.00840638 25.7782C-0.0706727 29.7803 0.602936 33.7766 1.98978 37.5522C3.56908 41.6788 5.92388 44.7468 8.95795 46.6148C12.3769 48.7092 17.9583 49.9036 24.2472 49.9036C27.0831 49.9036 29.9247 49.6432 32.7324 49.1281C36.6382 48.4205 40.3798 47.062 43.8271 45.0978C46.6687 43.4505 49.216 41.3561 51.3783 38.9051C55.0237 34.8068 57.1861 30.2274 58.7654 26.1632C58.9918 26.1632 59.1843 26.1632 59.4107 26.1632C63.3787 26.1632 65.8298 24.5839 67.1827 23.2253C68.0883 22.3876 68.762 21.3517 69.2488 20.1913L69.5375 19.3535L68.8752 18.8723ZM40.5213 22.2913H46.6517C46.9404 22.2913 47.2008 22.0649 47.2008 21.7422V16.2572C47.2008 15.9685 46.9744 15.7081 46.6517 15.7081H40.5213C40.2326 15.7081 39.9723 15.9345 39.9723 16.2572V21.7422C40.0062 22.0649 40.2326 22.2913 40.5213 22.2913ZM31.9739 6.58324H38.1043C38.393 6.58324 38.6533 6.35682 38.6533 6.03417V0.549075C38.6533 0.260386 38.393 0 38.1043 0H31.9739C31.6852 0 31.4248 0.226423 31.4248 0.549075V6.03417C31.4248 6.32286 31.6795 6.58324 31.9739 6.58324ZM31.9739 14.4514H38.1043C38.393 14.4514 38.6533 14.191 38.6533 13.9024V8.41727C38.6533 8.12858 38.393 7.86819 38.1043 7.86819H31.9739C31.6852 7.86819 31.4248 8.09461 31.4248 8.41727V13.9024C31.4248 14.1967 31.6795 14.4514 31.9739 14.4514ZM23.4887 14.4514H29.6191C29.9077 14.4514 30.1681 14.191 30.1681 13.9024V8.41727C30.1681 8.12858 29.9417 7.86819 29.6191 7.86819H23.4887C23.2 7.86819 22.9396 8.09461 22.9396 8.41727V13.9024C22.9396 14.1967 23.166 14.4514 23.4887 14.4514ZM14.8733 14.4514H21.0037C21.2923 14.4514 21.5527 14.191 21.5527 13.9024V8.41727C21.5527 8.12858 21.3263 7.86819 21.0037 7.86819H14.8733C14.5846 7.86819 14.3242 8.09461 14.3242 8.41727V13.9024C14.3581 14.1967 14.5846 14.4514 14.8733 14.4514ZM31.9739 22.2913H38.1043C38.393 22.2913 38.6533 22.0649 38.6533 21.7422V16.2572C38.6533 15.9685 38.4269 15.7081 38.1043 15.7081H31.9739C31.6852 15.7081 31.4248 15.9345 31.4248 16.2572V21.7422C31.4248 22.0649 31.6795 22.2913 31.9739 22.2913ZM23.4887 22.2913H29.6191C29.9077 22.2913 30.1681 22.0649 30.1681 21.7422V16.2572C30.1681 15.9685 29.9417 15.7081 29.6191 15.7081H23.4887C23.2 15.7081 22.9396 15.9345 22.9396 16.2572V21.7422C22.9396 22.0649 23.166 22.2913 23.4887 22.2913ZM14.8733 22.2913H21.0037C21.2923 22.2913 21.5527 22.0649 21.5527 21.7422V16.2572C21.5527 15.9685 21.3263 15.7081 21.0037 15.7081H14.8733C14.5846 15.7081 14.3242 15.9345 14.3242 16.2572V21.7422C14.3581 22.0649 14.5846 22.2913 14.8733 22.2913ZM6.42201 22.2913H12.5524C12.8411 22.2913 13.1015 22.0649 13.1015 21.7422V16.2572C13.1015 15.9685 12.8751 15.7081 12.5524 15.7081H6.42201C6.13332 15.7081 5.87293 15.9345 5.87293 16.2572V21.7422C5.9069 22.0649 6.13332 22.2913 6.42201 22.2913Z" fill="#0091E2"/>
</svg>